<mxfile host="65bd71144e">
    <diagram name="use case" id="use-case-id">
        <mxGraphModel dx="1000" dy="602" grid="1" gridSize="10" guides="1" tooltips="1" connect="1" arrows="1" fold="1" page="1" pageScale="1" pageWidth="827" pageHeight="1169" math="0" shadow="0">
            <root>
                <mxCell id="0"/>
                <mxCell id="1" parent="0"/>
                <mxCell id="2" value="Pet Adoption System" style="rounded=1;whiteSpace=wrap;html=1;fillColor=#fdfdfd;strokeColor=#000000;" parent="1" vertex="1">
                    <mxGeometry x="180" y="60" width="520" height="480" as="geometry"/>
                </mxCell>
                <mxCell id="3" value="User" style="shape=umlActor;verticalLabelPosition=bottom;verticalAlign=top;" parent="1" vertex="1">
                    <mxGeometry x="40" y="130" width="30" height="60" as="geometry"/>
                </mxCell>
                <mxCell id="4" value="Admin" style="shape=umlActor;verticalLabelPosition=bottom;verticalAlign=top;" parent="1" vertex="1">
                    <mxGeometry x="740" y="180" width="30" height="60" as="geometry"/>
                </mxCell>
                <mxCell id="5" value="Register" style="ellipse;whiteSpace=wrap;html=1;fontFamily=Arial;" parent="1" vertex="1">
                    <mxGeometry x="310" y="90" width="110" height="45" as="geometry"/>
                </mxCell>
                <mxCell id="6" value="Log In" style="ellipse;whiteSpace=wrap;html=1;fontFamily=Verdana;" parent="1" vertex="1">
                    <mxGeometry x="314" y="150" width="100" height="50" as="geometry"/>
                </mxCell>
                <mxCell id="7" value="Browse Pets" style="ellipse;whiteSpace=wrap;html=1;fontFamily=Arial;" parent="1" vertex="1">
                    <mxGeometry x="314" y="215" width="130" height="55" as="geometry"/>
                </mxCell>
                <mxCell id="8" value="Submit Adoption Request" style="ellipse;whiteSpace=wrap;html=1;fontFamily=Verdana;" parent="1" vertex="1">
                    <mxGeometry x="300" y="275" width="185" height="50" as="geometry"/>
                </mxCell>
                <mxCell id="9" value="View Request Status" style="ellipse;whiteSpace=wrap;html=1;fontFamily=Arial;" parent="1" vertex="1">
                    <mxGeometry x="312.5" y="333" width="160" height="52" as="geometry"/>
                </mxCell>
                <mxCell id="10" value="Review Requests" style="ellipse;whiteSpace=wrap;html=1;fontFamily=Verdana;" parent="1" vertex="1">
                    <mxGeometry x="310" y="400" width="140" height="50" as="geometry"/>
                </mxCell>
                <mxCell id="11" value="Add / Edit / Remove Pet" style="ellipse;whiteSpace=wrap;html=1;fontFamily=Arial;" parent="1" vertex="1">
                    <mxGeometry x="305" y="460" width="190" height="50" as="geometry"/>
                </mxCell>
                <mxCell id="12" style="endArrow=none;" parent="1" source="3" target="5" edge="1">
                    <mxGeometry relative="1" as="geometry"/>
                </mxCell>
                <mxCell id="13" style="endArrow=none;" parent="1" source="3" target="6" edge="1">
                    <mxGeometry relative="1" as="geometry"/>
                </mxCell>
                <mxCell id="14" style="endArrow=none;" parent="1" source="3" target="7" edge="1">
                    <mxGeometry relative="1" as="geometry"/>
                </mxCell>
                <mxCell id="15" style="endArrow=none;" parent="1" source="3" target="8" edge="1">
                    <mxGeometry relative="1" as="geometry"/>
                </mxCell>
                <mxCell id="16" style="endArrow=none;" parent="1" source="3" target="9" edge="1">
                    <mxGeometry relative="1" as="geometry"/>
                </mxCell>
                <mxCell id="17" style="endArrow=none;" parent="1" source="4" target="10" edge="1">
                    <mxGeometry relative="1" as="geometry">
                        <mxPoint x="600" y="360" as="targetPoint"/>
                    </mxGeometry>
                </mxCell>
                <mxCell id="18" style="endArrow=none;" parent="1" source="4" target="11" edge="1">
                    <mxGeometry relative="1" as="geometry">
                        <mxPoint x="600" y="460" as="targetPoint"/>
                    </mxGeometry>
                </mxCell>
            </root>
        </mxGraphModel>
    </diagram>
</mxfile>